<svg width="143" height="143" viewBox="0 0 143 143" fill="none" xmlns="http://www.w3.org/2000/svg">
<path d="M83.0489 111.775H38.0402C36.546 111.775 35.3311 112.99 35.3311 114.484C35.3311 115.978 36.546 117.193 38.0402 117.193H83.0489C84.5432 117.193 85.7581 115.978 85.7581 114.484C85.7581 112.976 84.5432 111.775 83.0489 111.775Z" fill="#005BFF"/>
<path d="M127.485 107.725V113.171H135.179C134.048 110.001 131.032 107.725 127.485 107.725Z" fill="#E6E6E6"/>
<path d="M113.897 94.3884V32.8453C113.897 30.597 112.068 28.7815 109.833 28.7815H11.2557C9.00732 28.7815 7.19189 30.6109 7.19189 32.8453V94.3884C7.19189 96.6367 9.02129 98.4521 11.2557 98.4521H109.833C112.082 98.4661 113.897 96.6367 113.897 94.3884ZM107.767 88.5231C107.767 90.7575 105.937 92.5869 103.703 92.5869H17.4002C15.1658 92.5869 13.3364 90.7575 13.3364 88.5231V38.7245C13.3364 36.4901 15.1658 34.6607 17.4002 34.6607H103.703C105.937 34.6607 107.767 36.4901 107.767 38.7245V88.5231Z" fill="white"/>
<path d="M103.703 34.6607H17.4002C15.1658 34.6607 13.3364 36.4901 13.3364 38.7245V88.5231C13.3364 90.7575 15.1658 92.5869 17.4002 92.5869H103.703C105.937 92.5869 107.767 90.7575 107.767 88.5231V38.7245C107.767 36.4901 105.937 34.6607 103.703 34.6607ZM30.6249 39.1574C30.6249 38.934 30.8064 38.7664 31.0159 38.7664H39.5764C39.7998 38.7664 39.9674 38.9479 39.9674 39.1574V41.6013C39.9674 41.8247 39.7858 41.9923 39.5764 41.9923H31.0159C30.7925 41.9923 30.6249 41.8107 30.6249 41.6013V39.1574ZM26.3936 38.6686C27.3152 38.6686 28.0554 39.4088 28.0554 40.3305C28.0554 41.2521 27.3152 41.9923 26.3936 41.9923C25.4719 41.9923 24.7317 41.2521 24.7317 40.3305C24.7317 39.4088 25.4858 38.6686 26.3936 38.6686ZM20.9473 38.6686C21.8689 38.6686 22.6091 39.4088 22.6091 40.3305C22.6091 41.2521 21.8689 41.9923 20.9473 41.9923C20.0256 41.9923 19.2854 41.2521 19.2854 40.3305C19.2854 39.4088 20.0256 38.6686 20.9473 38.6686ZM54.0858 64.0428C54.0858 73.5109 46.3772 81.2195 36.9091 81.2195C27.4409 81.2195 19.7323 73.5109 19.7323 64.0428C19.7323 54.5746 27.4409 46.866 36.9091 46.866H38.2637V62.6882H54.0858V64.0428ZM41.5035 58.6384V45.4137C48.8071 45.4137 54.7282 51.3348 54.7282 58.6384H41.5035ZM93.6762 79.432H74.0276C73.2735 79.432 72.673 78.8315 72.673 78.0774C72.673 77.3233 73.2735 76.7228 74.0276 76.7228H93.6762C94.4303 76.7228 95.0308 77.3233 95.0308 78.0774C95.0308 78.8176 94.4303 79.432 93.6762 79.432ZM93.6762 69.1958H73.3434C72.5893 69.1958 71.9888 68.5953 71.9888 67.8412C71.9888 67.0871 72.5893 66.4866 73.3434 66.4866H93.6762C94.4303 66.4866 95.0308 67.0871 95.0308 67.8412C95.0308 68.5953 94.4303 69.1958 93.6762 69.1958ZM93.6762 58.9456H64.4059C63.6518 58.9456 63.0513 58.3451 63.0513 57.591C63.0513 56.8369 63.6518 56.2364 64.4059 56.2364H93.6901C94.4442 56.2364 95.0447 56.8369 95.0447 57.591C95.0447 58.3451 94.4303 58.9456 93.6762 58.9456ZM93.6762 48.7094H64.4059C63.6518 48.7094 63.0513 48.1089 63.0513 47.3548C63.0513 46.6007 63.6518 46.0002 64.4059 46.0002H93.6901C94.4442 46.0002 95.0447 46.6007 95.0447 47.3548C95.0447 48.1089 94.4303 48.7094 93.6762 48.7094Z" fill="#E6E6E6"/>
<path d="M35.5544 49.645C28.2089 50.3293 22.4414 56.5297 22.4414 64.0428C22.4414 72.0167 28.9351 78.5104 36.909 78.5104C44.4221 78.5104 50.6225 72.7429 51.3067 65.3974H35.5544V49.645Z" fill="white"/>
<path d="M38.2638 46.866H36.9092C27.441 46.866 19.7324 54.5746 19.7324 64.0428C19.7324 73.5109 27.441 81.2195 36.9092 81.2195C46.3773 81.2195 54.0859 73.5109 54.0859 64.0428V62.6882H38.2638V46.866ZM51.3069 65.4113C50.6227 72.7568 44.4223 78.5243 36.9092 78.5243C28.9353 78.5243 22.4416 72.0307 22.4416 64.0567C22.4416 56.5437 28.2091 50.3433 35.5546 49.659V65.4113H51.3069Z" fill="#005BFF"/>
<path d="M41.5034 45.4137V58.6384H54.7281C54.7281 51.3348 48.807 45.4137 41.5034 45.4137Z" fill="#005BFF"/>
<path d="M19.2856 40.3305C19.2856 40.7712 19.4607 41.1939 19.7724 41.5056C20.084 41.8172 20.5067 41.9923 20.9475 41.9923C21.3882 41.9923 21.8109 41.8172 22.1225 41.5056C22.4342 41.1939 22.6093 40.7712 22.6093 40.3305C22.6093 39.8897 22.4342 39.467 22.1225 39.1554C21.8109 38.8437 21.3882 38.6687 20.9475 38.6687C20.5067 38.6687 20.084 38.8437 19.7724 39.1554C19.4607 39.467 19.2856 39.8897 19.2856 40.3305Z" fill="white"/>
<path d="M24.7319 40.3305C24.7319 40.7712 24.907 41.1939 25.2187 41.5056C25.5303 41.8172 25.953 41.9923 26.3937 41.9923C26.8345 41.9923 27.2572 41.8172 27.5688 41.5056C27.8805 41.1939 28.0556 40.7712 28.0556 40.3305C28.0556 39.8897 27.8805 39.467 27.5688 39.1554C27.2572 38.8437 26.8345 38.6687 26.3937 38.6687C25.953 38.6687 25.5303 38.8437 25.2187 39.1554C24.907 39.467 24.7319 39.8897 24.7319 40.3305Z" fill="white"/>
<path d="M31.016 41.9923H39.5765C39.7999 41.9923 39.9675 41.8107 39.9675 41.6013V39.1574C39.9675 38.934 39.7859 38.7664 39.5765 38.7664H31.016C30.7926 38.7664 30.625 38.9479 30.625 39.1574V41.6013C30.625 41.8247 30.8065 41.9923 31.016 41.9923Z" fill="white"/>
<path d="M127.485 102.292C120.921 102.292 115.433 106.971 114.176 113.157H98.0191C96.3853 113.157 95.1982 112.836 94.7793 112.277C94.5 111.9 94.5 111.3 94.5 111.021V103.884H109.847C115.084 103.884 119.329 99.6252 119.329 94.4024V32.8453C119.329 27.6085 115.07 23.3632 109.847 23.3632H11.2556C6.01875 23.3632 1.77344 27.6225 1.77344 32.8453V94.3884C1.77344 99.6252 6.03271 103.871 11.2556 103.871H89.0677V111.021C89.0677 111.691 89.0677 113.716 90.4502 115.545C91.9724 117.556 94.514 118.575 98.0191 118.575H141.059V115.866C141.059 108.381 134.97 102.292 127.485 102.292ZM11.2556 98.4661C9.00723 98.4661 7.1918 96.6367 7.1918 94.4024V32.8453C7.1918 30.597 9.02119 28.7815 11.2556 28.7815H109.833C112.082 28.7815 113.897 30.6109 113.897 32.8453V94.3884C113.897 96.6367 112.068 98.4522 109.833 98.4522H11.2556V98.4661ZM127.485 113.157H119.79C120.908 109.987 123.938 107.711 127.485 107.711C131.032 107.711 134.062 109.987 135.18 113.157H127.485Z" fill="#005BFF"/>
<path d="M93.6762 46.0002H64.4059C63.6518 46.0002 63.0513 46.6007 63.0513 47.3548C63.0513 48.1089 63.6518 48.7094 64.4059 48.7094H93.6901C94.4442 48.7094 95.0447 48.1089 95.0447 47.3548C95.0447 46.6007 94.4303 46.0002 93.6762 46.0002Z" fill="#005BFF"/>
<path d="M93.6762 56.2364H64.4059C63.6518 56.2364 63.0513 56.8369 63.0513 57.591C63.0513 58.3451 63.6518 58.9456 64.4059 58.9456H93.6901C94.4442 58.9456 95.0447 58.3451 95.0447 57.591C95.0447 56.8369 94.4303 56.2364 93.6762 56.2364ZM93.6762 66.4866H73.3434C72.5893 66.4866 71.9888 67.0871 71.9888 67.8412C71.9888 68.5953 72.5893 69.1958 73.3434 69.1958H93.6762C94.4303 69.1958 95.0308 68.5953 95.0308 67.8412C95.0308 67.0871 94.4303 66.4866 93.6762 66.4866Z" fill="#06F3FF"/>
<path d="M93.676 76.7229H74.0274C73.2733 76.7229 72.6729 77.3233 72.6729 78.0774C72.6729 78.8315 73.2733 79.432 74.0274 79.432H93.676C94.4301 79.432 95.0306 78.8315 95.0306 78.0774C95.0306 77.3233 94.4301 76.7229 93.676 76.7229Z" fill="#005BFF"/>
</svg>
